<?xml version="1.0" standalone="no"?>
<!DOCTYPE svg PUBLIC "-//W3C//DTD SVG 20010904//EN"
 "http://www.w3.org/TR/2001/REC-SVG-20010904/DTD/svg10.dtd">
<svg version="1.0" xmlns="http://www.w3.org/2000/svg"
 width="224.000000pt" height="175.000000pt" viewBox="0 0 224.000000 175.000000"
 preserveAspectRatio="xMidYMid meet">
<metadata>
Created by potrace 1.16, written by Peter Selinger 2001-2019
</metadata>
<g transform="translate(0.000000,175.000000) scale(0.100000,-0.100000)"
fill="#fff" stroke="none">
<path d="M567 1694 c-55 -17 -113 -70 -142 -129 -19 -38 -20 -63 -20 -515 0
-534 -3 -512 77 -592 70 -70 58 -69 844 -66 l699 3 41 22 c53 28 107 91 122
142 17 54 17 928 0 982 -15 51 -69 114 -122 142 l-41 22 -705 2 c-600 2 -712
0 -753 -13z m1453 -119 c62 -32 60 -15 60 -525 0 -510 2 -493 -60 -525 -25
-13 -127 -15 -720 -15 -768 0 -732 -3 -765 66 -22 48 -22 900 0 948 33 69 -6
65 763 66 596 0 697 -2 722 -15z"/>
<path d="M844 1426 c-68 -30 -62 -132 9 -155 86 -29 154 67 95 133 -29 32 -64
39 -104 22z"/>
<path d="M1443 1340 c-12 -5 -61 -62 -109 -127 -110 -150 -101 -141 -120 -115
-32 46 -97 64 -149 40 -27 -12 -265 -305 -292 -359 -18 -36 -5 -84 33 -120
l26 -24 506 -3 c332 -2 519 1 543 7 48 14 70 42 76 93 5 42 2 47 -177 298
-100 140 -194 268 -209 283 -30 31 -90 44 -128 27z m208 -337 c89 -126 167
-234 172 -240 7 -10 -86 -13 -462 -13 l-472 0 107 140 c58 77 109 140 113 140
3 -1 26 -25 50 -55 33 -42 50 -55 70 -55 34 0 46 13 161 178 50 72 93 132 95
132 2 0 77 -102 166 -227z"/>
<path d="M74 1462 c-32 -21 -34 -52 -34 -554 0 -277 4 -531 9 -566 5 -34 20
-84 32 -110 34 -70 113 -144 184 -173 l60 -24 734 -3 c810 -3 781 -5 781 58 0
62 29 60 -765 60 l-720 0 -50 24 c-28 12 -65 39 -82 59 -62 70 -63 84 -63 673
l0 533 -22 15 c-24 17 -47 20 -64 8z"/>
</g>
</svg>
